<svg width="33" height="32" viewBox="0 0 33 32" fill="none" xmlns="http://www.w3.org/2000/svg">
<g filter="url(#filter0_i_881_214)">
<path d="M27.5413 30.7661C26.6384 30.9302 25.7175 30.9714 24.8037 30.8884L15.505 30.043C15.3555 30.0294 15.217 29.9587 15.1184 29.8456C15.0197 29.7325 14.9684 29.5857 14.9752 29.4358C14.9819 29.2859 15.0462 29.1443 15.1547 29.0406C15.2631 28.9368 15.4074 28.8789 15.5575 28.8788H22.7287C23.0833 28.8782 23.4232 28.737 23.6739 28.4861C23.9245 28.2352 24.0654 27.8952 24.0656 27.5405V27.528C24.065 27.247 23.9739 26.9737 23.8057 26.7486L22.5812 25.1166C22.5036 25.0128 22.4615 24.8867 22.4613 24.7571V24.6653C22.4613 24.5467 22.4964 24.4308 22.5623 24.3322C22.6282 24.2336 22.7219 24.1567 22.8314 24.1113C22.941 24.0659 23.0616 24.0541 23.1779 24.0772C23.2942 24.1003 23.4011 24.1575 23.4849 24.2413L25.8266 26.583C25.8763 26.6326 25.9353 26.672 26.0002 26.6989C26.065 26.7258 26.1346 26.7396 26.2048 26.7396H32.0875V25.67H26.4263L24.2413 23.4849C24.1863 23.4301 24.1276 23.3791 24.0656 23.3322V11.2306C24.0656 11.0888 24.0093 10.9528 23.909 10.8525C23.8087 10.7522 23.6727 10.6958 23.5309 10.6958H22.9961V9.09147H23.7982C24.2947 9.09147 24.7708 8.89426 25.1218 8.54324C25.4728 8.19221 25.67 7.71612 25.67 7.21969C25.67 6.72327 25.4728 6.24718 25.1218 5.89615C24.7708 5.54512 24.2947 5.34792 23.7982 5.34792H23.743C24.0107 5.02709 24.1484 4.61751 24.1288 4.2001C24.1092 3.78268 23.9338 3.38779 23.6372 3.09343C23.3406 2.79908 22.9444 2.62666 22.5269 2.61025C22.1093 2.59384 21.7008 2.73462 21.382 3.0048C21.3314 2.47508 21.0852 1.98324 20.6914 1.6253C20.2977 1.26737 19.7846 1.06904 19.2525 1.06904C18.7204 1.06904 18.2074 1.26737 17.8136 1.6253C17.4199 1.98324 17.1736 2.47508 17.123 3.0048C16.8043 2.73462 16.3957 2.59384 15.9782 2.61025C15.5606 2.62666 15.1644 2.79908 14.8678 3.09343C14.5712 3.38779 14.3958 3.78268 14.3762 4.2001C14.3566 4.61751 14.4943 5.02709 14.7621 5.34792H14.7068C14.4292 5.34767 14.1551 5.4095 13.9046 5.52888V3.20875C13.9046 2.35774 13.5665 1.54158 12.9648 0.939822C12.363 0.338064 11.5469 0 10.6958 0C9.84483 0 9.02867 0.338064 8.42691 0.939822C7.82515 1.54158 7.48709 2.35774 7.48709 3.20875V10.6958H6.9523C6.81046 10.6958 6.67443 10.7522 6.57414 10.8525C6.47385 10.9528 6.4175 11.0888 6.4175 11.2306V13.5822L3.54574 16.0438H0V17.1133H3.74354C3.8712 17.1133 3.99464 17.0677 4.09156 16.9846L7.19122 14.3277C7.50987 14.0548 7.91561 13.9047 8.3352 13.9046C8.37901 13.9046 8.42183 13.9176 8.45824 13.9419C8.49466 13.9663 8.52305 14.0009 8.53981 14.0413C8.55656 14.0818 8.56094 14.1263 8.55239 14.1693C8.54384 14.2123 8.52274 14.2517 8.49176 14.2827L6.57413 16.2004C6.49934 16.2752 6.4484 16.3705 6.42776 16.4742C6.40713 16.578 6.41772 16.6855 6.4582 16.7832C6.49867 16.8809 6.56722 16.9645 6.65517 17.0232C6.74312 17.082 6.84652 17.1133 6.9523 17.1133H12.5676C12.6385 17.1133 12.7065 17.1415 12.7567 17.1917C12.8068 17.2418 12.835 17.3098 12.835 17.3807C12.835 17.4517 12.8068 17.5197 12.7567 17.5698C12.7065 17.62 12.6385 17.6481 12.5676 17.6481H8.55667C8.41484 17.6481 8.27881 17.7045 8.17852 17.8048C8.07822 17.9051 8.02188 18.0411 8.02188 18.1829C8.02188 18.3248 8.07822 18.4608 8.17852 18.5611C8.27881 18.6614 8.41484 18.7177 8.55667 18.7177H14.172C14.2429 18.7177 14.3109 18.7459 14.3611 18.796C14.4112 18.8462 14.4394 18.9142 14.4394 18.9851C14.4394 19.056 14.4112 19.124 14.3611 19.1742C14.3109 19.2243 14.2429 19.2525 14.172 19.2525H8.55667C8.41484 19.2525 8.27881 19.3089 8.17852 19.4092C8.07822 19.5094 8.02188 19.6455 8.02188 19.7873C8.02188 19.9291 8.07822 20.0652 8.17852 20.1655C8.27881 20.2658 8.41484 20.3221 8.55667 20.3221H13.1024C13.1733 20.3221 13.2413 20.3503 13.2915 20.4004C13.3416 20.4506 13.3698 20.5186 13.3698 20.5895C13.3698 20.6604 13.3416 20.7284 13.2915 20.7786C13.2413 20.8287 13.1733 20.8569 13.1024 20.8569H8.55667C8.41484 20.8569 8.27881 20.9132 8.17852 21.0135C8.07822 21.1138 8.02188 21.2498 8.02188 21.3917C8.02188 21.5335 8.07822 21.6695 8.17852 21.7698C8.27881 21.8701 8.41484 21.9265 8.55667 21.9265H11.1972C11.2054 21.9269 11.2132 21.9303 11.2191 21.9361C11.2249 21.9419 11.2284 21.9496 11.2289 21.9578C11.2294 21.966 11.2269 21.9741 11.2218 21.9806C11.2167 21.987 11.2094 21.9914 11.2013 21.9928L7.52894 22.4518L3.89061 21.4123C3.84279 21.3986 3.79329 21.3917 3.74354 21.3917H0V22.4613H3.66867L6.4175 23.2467V28.344H6.41877C6.41827 28.4142 6.43172 28.4839 6.45833 28.5489C6.48495 28.614 6.52421 28.6731 6.57384 28.7228C6.62346 28.7726 6.68247 28.812 6.74743 28.8387C6.8124 28.8655 6.88203 28.8791 6.9523 28.8788H14.0116C13.9215 29.117 13.8878 29.3729 13.9131 29.6263C13.9383 29.8798 14.0218 30.124 14.157 30.3398C14.2922 30.5557 14.4755 30.7373 14.6925 30.8706C14.9096 31.0039 15.1545 31.0852 15.4082 31.1082L24.7068 31.9538C25.0452 31.9847 25.3841 32.0001 25.7235 32C26.3973 32 27.0697 31.9394 27.7326 31.8189L32.1832 31.0097L31.9919 29.9573L27.5413 30.7661ZM12.835 8.55667C12.8352 8.41489 12.8916 8.27895 12.9918 8.17869C13.0921 8.07844 13.228 8.02204 13.3698 8.02188H14.4394C15.0065 8.02252 15.5503 8.2481 15.9513 8.64913C16.3523 9.05017 16.5779 9.5939 16.5786 10.161C16.5784 10.3028 16.522 10.4388 16.4217 10.539C16.3215 10.6393 16.1855 10.6957 16.0438 10.6958H14.9742C14.407 10.6952 13.8633 10.4696 13.4623 10.0686C13.0612 9.66756 12.8356 9.12382 12.835 8.55667ZM14.7068 6.4175H16.0438C16.1495 6.41751 16.2529 6.38615 16.3409 6.32738C16.4288 6.26862 16.4974 6.18509 16.5379 6.08737C16.5783 5.98965 16.5889 5.88212 16.5683 5.77837C16.5477 5.67463 16.4967 5.57934 16.4219 5.50455L15.6197 4.70236C15.5641 4.64668 15.5199 4.58057 15.4897 4.50782C15.4596 4.43506 15.4441 4.35708 15.4441 4.27834C15.4441 4.19959 15.4596 4.12161 15.4897 4.04886C15.5199 3.9761 15.5641 3.91 15.6197 3.85431C15.6754 3.79863 15.7415 3.75446 15.8143 3.72432C15.887 3.69419 15.965 3.67868 16.0438 3.67868C16.1225 3.67868 16.2005 3.69419 16.2732 3.72432C16.346 3.75446 16.4121 3.79863 16.4678 3.85431L17.27 4.6565C17.3448 4.7313 17.4401 4.78223 17.5438 4.80287C17.6475 4.82351 17.7551 4.81292 17.8528 4.77244C17.9505 4.73196 18.034 4.66341 18.0928 4.57546C18.1516 4.48751 18.1829 4.38411 18.1829 4.27834V3.20875C18.1829 2.92508 18.2956 2.65303 18.4962 2.45244C18.6968 2.25186 18.9688 2.13917 19.2525 2.13917C19.5362 2.13917 19.8082 2.25186 20.0088 2.45244C20.2094 2.65303 20.3221 2.92508 20.3221 3.20875V4.27834C20.3221 4.38411 20.3535 4.48751 20.4122 4.57546C20.471 4.66341 20.5545 4.73196 20.6522 4.77244C20.75 4.81292 20.8575 4.82351 20.9612 4.80287C21.065 4.78223 21.1603 4.7313 21.2351 4.6565L22.0372 3.85431C22.0929 3.79863 22.159 3.75446 22.2318 3.72432C22.3045 3.69419 22.3825 3.67868 22.4613 3.67868C22.54 3.67868 22.618 3.69419 22.6907 3.72432C22.7635 3.75446 22.8296 3.79863 22.8853 3.85431C22.941 3.91 22.9851 3.9761 23.0153 4.04886C23.0454 4.12161 23.0609 4.19959 23.0609 4.27834C23.0609 4.35708 23.0454 4.43506 23.0153 4.50782C22.9851 4.58057 22.941 4.64668 22.8853 4.70236L22.0831 5.50455C22.0083 5.57934 21.9574 5.67463 21.9367 5.77837C21.9161 5.88212 21.9267 5.98965 21.9672 6.08737C22.0076 6.18509 22.0762 6.26862 22.1641 6.32738C22.2521 6.38615 22.3555 6.41751 22.4613 6.4175H23.7982C24.011 6.4175 24.215 6.50202 24.3655 6.65246C24.5159 6.8029 24.6004 7.00694 24.6004 7.21969C24.6004 7.43245 24.5159 7.63649 24.3655 7.78693C24.215 7.93736 24.011 8.02188 23.7982 8.02188H22.4613C22.3194 8.02188 22.1834 8.07822 22.0831 8.17852C21.9828 8.27881 21.9265 8.41484 21.9265 8.55667V8.84152C21.3025 8.28108 20.4834 7.9879 19.6455 8.02503C18.8076 8.06216 18.0177 8.42663 17.4457 9.04006C17.2165 8.42752 16.806 7.89946 16.2688 7.52642C15.7316 7.15337 15.0934 6.95308 14.4394 6.9523H13.9514C14.0067 6.7961 14.109 6.66084 14.2443 6.5651C14.3795 6.46935 14.5411 6.41779 14.7068 6.4175V6.4175ZM21.8588 10.6958H17.7159C17.8343 10.2365 18.102 9.82949 18.477 9.53892C18.852 9.24834 19.3129 9.09065 19.7873 9.09065C20.2617 9.09065 20.7226 9.24834 21.0976 9.53892C21.4726 9.82949 21.7403 10.2365 21.8588 10.6958ZM8.55667 3.20875C8.55667 2.64141 8.78205 2.0973 9.18322 1.69613C9.58439 1.29496 10.1285 1.06958 10.6958 1.06958C11.2632 1.06958 11.8073 1.29496 12.2085 1.69613C12.6096 2.0973 12.835 2.64141 12.835 3.20875V7.04428C12.5225 7.15519 12.2519 7.36008 12.0604 7.63086C11.8689 7.90163 11.7659 8.22503 11.7654 8.55667C11.7649 9.34652 12.0569 10.1086 12.5851 10.6958H8.55667V3.20875ZM9.62626 11.7654H10.6958V16.0438H9.62626V11.7654ZM8.3352 12.835C8.0475 12.8351 7.7615 12.8792 7.48709 12.9656V11.7654H8.55667V12.8554C8.48357 12.8423 8.40947 12.8354 8.3352 12.835V12.835ZM8.55667 15.7305V16.0438H8.24335L8.55667 15.7305ZM9.62626 23.2676L10.6958 23.1339V27.0528L9.62626 25.9832V23.2676ZM7.5534 23.5267L8.55667 23.4013V25.9833L7.48709 27.0529V23.5309C7.50926 23.5308 7.53141 23.5295 7.5534 23.5267V23.5267ZM8.24335 27.8092L9.09147 26.9611L9.93958 27.8092H8.24335ZM11.7654 22.9035C11.9283 22.8056 12.0631 22.6672 12.1568 22.5019C12.2504 22.3365 12.2999 22.1498 12.3002 21.9598C12.3002 21.9486 12.3002 21.9375 12.2997 21.9263H13.1024C13.3024 21.9262 13.4999 21.8813 13.6802 21.7948C13.8606 21.7083 14.0193 21.5824 14.1445 21.4265C14.2698 21.2705 14.3585 21.0885 14.4041 20.8937C14.4498 20.699 14.4511 20.4965 14.4081 20.3011C14.7369 20.2421 15.0318 20.0622 15.2346 19.7967C15.4374 19.5312 15.5335 19.1994 15.5038 18.8666C15.4742 18.5338 15.3211 18.2242 15.0746 17.9987C14.8281 17.7732 14.5061 17.6481 14.172 17.6481H13.8779C13.9173 17.4539 13.9132 17.2533 13.8656 17.0608C13.8181 16.8684 13.7284 16.6889 13.603 16.5354C13.4776 16.3819 13.3197 16.2581 13.1406 16.1731C12.9616 16.0881 12.7658 16.0439 12.5676 16.0438H11.7654V11.7654H22.9961V22.9977C22.5651 23.015 22.1576 23.1981 21.8586 23.5089C21.5596 23.8197 21.3923 24.2341 21.3917 24.6653V24.7571C21.3925 25.1182 21.5097 25.4694 21.7259 25.7587L22.9503 27.3904C22.98 27.4302 22.9961 27.4784 22.9963 27.528V27.5405C22.9963 27.6116 22.9682 27.6798 22.918 27.7302C22.8679 27.7806 22.7998 27.809 22.7287 27.8092H11.7654V22.9035Z" fill="white"/>
</g>
<defs>
<filter id="filter0_i_881_214" x="0" y="0" width="32.1832" height="36" filterUnits="userSpaceOnUse" color-interpolation-filters="sRGB">
<feFlood flood-opacity="0" result="BackgroundImageFix"/>
<feBlend mode="normal" in="SourceGraphic" in2="BackgroundImageFix" result="shape"/>
<feColorMatrix in="SourceAlpha" type="matrix" values="0 0 0 0 0 0 0 0 0 0 0 0 0 0 0 0 0 0 127 0" result="hardAlpha"/>
<feOffset dy="4"/>
<feGaussianBlur stdDeviation="50"/>
<feComposite in2="hardAlpha" operator="arithmetic" k2="-1" k3="1"/>
<feColorMatrix type="matrix" values="0 0 0 0 0.554167 0 0 0 0 0.554167 0 0 0 0 0.554167 0 0 0 1 0"/>
<feBlend mode="normal" in2="shape" result="effect1_innerShadow_881_214"/>
</filter>
</defs>
</svg>
